<svg width="27" height="32" viewBox="0 0 27 32" fill="none" xmlns="http://www.w3.org/2000/svg">
<path d="M0.924489 8.49599C0.775702 8.40831 0.775753 8.19309 0.924577 8.10547C4.948 5.7367 8.97417 3.37339 12.9985 1.00539C13.0696 0.96351 13.158 0.963651 13.229 1.00576C17.2229 3.37333 21.2149 5.74185 25.2078 8.10945C25.354 8.19614 25.3563 8.4069 25.212 8.49666C24.3442 9.03638 23.475 9.57348 22.6058 10.1112C22.5318 10.1569 22.4382 10.1563 22.3649 10.1097C21.4583 9.5334 20.5502 8.95874 19.6437 8.38331C19.5735 8.33873 19.4844 8.33619 19.4118 8.37671C17.4143 9.49069 15.4151 10.603 13.4166 11.7168C13.2656 11.801 13.2606 12.0164 13.4078 12.1071C14.2298 12.6139 15.0548 13.1149 15.8767 13.6211C16.0213 13.7101 16.0199 13.9207 15.8742 14.008C14.9918 14.5368 14.1103 15.0657 13.2294 15.5953C13.1582 15.6382 13.0692 15.6386 12.9976 15.5964C8.97454 13.2276 4.94678 10.8664 0.924489 8.49599ZM7.39957 8.11149C7.2533 8.19776 7.25041 8.4083 7.39424 8.49857C8.20548 9.0077 9.01771 9.51642 9.83282 10.0216C9.90408 10.0657 9.9939 10.0669 10.0663 10.0247C11.9584 8.92148 13.8564 7.82855 15.7506 6.73037C15.9014 6.64294 15.9011 6.42507 15.7501 6.33786C14.891 5.84145 14.0336 5.34198 13.1749 4.84452C13.1041 4.80351 13.0167 4.80385 12.9462 4.84538C11.0977 5.93471 9.2474 7.02149 7.39957 8.11149Z" fill="white"/>
<path d="M0.11472 24.0161C0.0438226 23.9756 0.000178254 23.9001 0.000464905 23.8185C0.0162471 19.3234 0.0283502 14.8293 0.0505409 10.3343C0.0514042 10.1594 0.241612 10.0514 0.392271 10.1401C4.36598 12.4821 8.34429 14.8157 12.3207 17.1531C12.3898 17.1937 12.4323 17.2678 12.4325 17.3479C12.4347 18.4062 12.4321 19.4644 12.4335 20.5227C12.4337 20.6994 12.2408 20.8086 12.0895 20.7173C9.22379 18.9881 6.35569 17.2612 3.49174 15.5285C3.34202 15.4379 3.15048 15.5439 3.14791 15.7189C3.1173 17.7992 3.09879 19.8802 3.06256 21.9604C3.06111 22.044 3.10572 22.1216 3.17868 22.1623C6.22356 23.8628 9.27036 25.5595 12.3162 27.259C12.3879 27.299 12.4323 27.3746 12.4324 27.4566C12.434 28.5269 12.4334 29.5972 12.4333 30.6668C12.4332 30.8408 12.2452 30.9499 12.0941 30.8636C8.10105 28.5816 4.10883 26.297 0.11472 24.0161Z" fill="white"/>
<path d="M18.915 14.1945C21.234 12.848 23.5502 11.496 25.8627 10.1374C26.0137 10.0486 26.2041 10.1575 26.2042 10.3327C26.2059 14.7333 26.2031 19.1339 26.206 23.5335C26.206 23.6123 26.1653 23.6854 26.0982 23.7266C25.1896 24.2862 24.2789 24.8436 23.37 25.4021C23.2189 25.4949 23.0245 25.3862 23.0245 25.2089C23.0252 22.222 23.0236 19.2344 23.0252 16.2476C23.0253 16.076 22.8421 15.9666 22.6912 16.0482C22.3668 16.2237 22.0427 16.3996 21.7183 16.5748C21.645 16.6143 21.5993 16.6908 21.5992 16.774C21.5954 19.9334 21.5982 23.0927 21.5973 26.252C21.5973 26.3307 21.5565 26.4037 21.4896 26.4449C20.5777 27.0065 19.6638 27.5653 18.7516 28.1264C18.6006 28.2193 18.4061 28.1108 18.406 27.9336C18.4036 24.8724 18.406 21.8113 18.4045 18.7502C18.4044 18.578 18.2198 18.4687 18.0686 18.551C17.6972 18.7531 17.3252 18.9534 16.9535 19.1549C16.8805 19.1946 16.8351 19.271 16.8351 19.3541C16.835 22.5961 16.8341 25.8381 16.836 29.0811C16.8361 29.1611 16.7939 29.2352 16.7251 29.276C15.831 29.8062 14.9321 30.3281 14.0386 30.8583C13.8873 30.9481 13.6955 30.8393 13.6954 30.6634C13.6937 26.2324 13.6955 21.8014 13.6946 17.3705C13.6946 17.2909 13.7362 17.2172 13.8045 17.1763C15.4968 16.1631 17.238 15.2325 18.915 14.1945Z" fill="white"/>
</svg>
